<svg width="471" height="544" viewBox="0 0 471 544" fill="none" xmlns="http://www.w3.org/2000/svg">
<path d="M234.729 129.815C225.111 129.815 215.708 126.963 207.711 121.62C199.714 116.276 193.481 108.681 189.801 99.7956C186.12 90.9097 185.157 81.1319 187.033 71.6986C188.91 62.2654 193.541 53.6004 200.342 46.7995C207.143 39.9985 215.808 35.367 225.241 33.4906C234.675 31.6142 244.452 32.5772 253.338 36.2579C262.224 39.9386 269.819 46.1715 275.163 54.1686C280.506 62.1657 283.358 71.5678 283.358 81.1858C283.347 94.0798 278.22 106.442 269.103 115.56C259.985 124.677 247.623 129.804 234.729 129.815Z" fill="#FDD835"/>
<path d="M150.244 214.718C177.102 214.718 198.874 192.946 198.874 166.088C198.874 139.231 177.102 117.459 150.244 117.459C123.387 117.459 101.615 139.231 101.615 166.088C101.615 192.946 123.387 214.718 150.244 214.718Z" fill="#FDD835"/>
<path d="M234.729 303.642C261.586 303.642 283.358 281.87 283.358 255.013C283.358 228.155 261.586 206.383 234.729 206.383C207.871 206.383 186.099 228.155 186.099 255.013C186.099 281.87 207.871 303.642 234.729 303.642Z" fill="#3D53FF"/>
<path d="M320.092 389.006C346.95 389.006 368.722 367.234 368.722 340.376C368.722 313.519 346.95 291.747 320.092 291.747C293.235 291.747 271.463 313.519 271.463 340.376C271.463 367.234 293.235 389.006 320.092 389.006Z" fill="#3D53FF"/>
<path d="M58.9522 487.446C60.4942 489.023 62.3479 490.26 64.395 491.079C66.442 491.898 68.6374 492.281 70.8408 492.203C72.9581 492.28 75.0671 491.899 77.0233 491.085C78.9795 490.27 80.7367 489.043 82.1744 487.486C85.2085 483.994 86.771 479.461 86.5336 474.84V425.842H108.29V474.84C108.406 481.456 106.794 487.987 103.613 493.789C100.602 499.187 96.0488 503.563 90.536 506.356C84.3811 509.395 77.5842 510.904 70.7219 510.756C63.783 510.907 56.9084 509.398 50.6699 506.356C45.0928 503.568 40.4614 499.197 37.3548 493.789C34.139 488.001 32.5248 481.46 32.6786 474.84V425.842H54.4346V474.84C54.3115 477.136 54.6476 479.434 55.4233 481.599C56.1991 483.763 57.3988 485.751 58.9522 487.446V487.446Z" fill="white"/>
<path d="M237.042 425.842H259.392L231.217 509.091H208.866L193.015 452.363L177.164 509.091H154.655L126.598 425.842H150.018L166.424 486.733L182.87 425.842H204.151L220.794 486.733L237.042 425.842Z" fill="white"/>
<path d="M328.465 445.98C325.092 444.06 321.289 443.024 317.408 442.967C313.361 442.917 309.379 444.002 305.916 446.099C302.545 448.231 299.808 451.229 297.991 454.781C296.036 458.589 295.017 462.809 295.017 467.09C295.017 471.371 296.036 475.59 297.991 479.399C299.808 482.95 302.545 485.949 305.916 488.08C309.376 490.189 313.357 491.288 317.408 491.252C321.124 491.178 324.778 490.285 328.108 488.635C331.843 486.884 335.227 484.466 338.094 481.5L350.815 495.176C346.228 499.97 340.75 503.822 334.686 506.514C328.258 509.541 321.2 510.987 314.1 510.732C307 510.477 300.064 508.528 293.869 505.047C287.274 501.385 281.795 496 278.018 489.468C274.174 482.737 272.203 475.099 272.311 467.347C272.194 459.742 274.164 452.25 278.007 445.687C281.85 439.124 287.418 433.741 294.107 430.123C300.389 426.774 307.343 424.879 314.456 424.577C321.569 424.275 328.658 425.574 335.202 428.379C340.986 430.797 346.208 434.388 350.538 438.924L337.936 454.147C335.363 450.812 332.141 448.034 328.465 445.98V445.98Z" fill="white"/>
<path d="M415.172 444.514C411.112 443.031 406.848 442.189 402.53 442.016C400.308 441.898 398.098 442.406 396.15 443.483C395.411 443.937 394.808 444.581 394.404 445.348C393.999 446.115 393.809 446.977 393.852 447.844C393.836 448.705 394.008 449.559 394.357 450.347C394.707 451.134 395.224 451.836 395.873 452.402C397.334 453.7 399.028 454.709 400.866 455.376C402.847 456.129 405.78 457.12 409.663 458.309C414.537 459.655 419.316 461.324 423.969 463.304C427.793 465.003 431.131 467.633 433.678 470.955C436.489 474.883 437.885 479.648 437.641 484.473C437.785 489.56 436.238 494.552 433.242 498.665C430.196 502.687 426.074 505.766 421.354 507.545C415.908 509.587 410.129 510.596 404.313 510.518C397.274 510.487 390.291 509.254 383.667 506.871C377.197 504.672 371.181 501.314 365.914 496.96L374.354 479.954C378.774 483.819 383.81 486.915 389.255 489.111C394.075 491.28 399.27 492.492 404.551 492.679C407.218 492.821 409.87 492.202 412.199 490.895C413.094 490.356 413.828 489.585 414.323 488.664C414.818 487.744 415.056 486.707 415.013 485.662C415.029 484.764 414.85 483.874 414.487 483.052C414.124 482.231 413.587 481.498 412.913 480.905C411.389 479.55 409.611 478.512 407.682 477.853C405.582 477.1 402.649 476.227 398.845 475.197C394.024 473.91 389.297 472.294 384.697 470.36C380.947 468.722 377.655 466.19 375.107 462.987C372.299 459.208 370.898 454.567 371.144 449.865C371.008 445.042 372.395 440.298 375.107 436.308C378.05 432.254 382.093 429.131 386.758 427.309C392.345 425.114 398.312 424.049 404.313 424.177C410.348 424.17 416.353 425.024 422.146 426.714C427.602 428.243 432.807 430.553 437.601 433.572L429.398 450.936C424.898 448.294 420.129 446.141 415.172 444.514V444.514Z" fill="white"/>
</svg>
